	<?xml version="1.0" encoding="utf-8"?>
	<!-- Generator: Adobe Illustrator 17.0.0, SVG Export Plug-In . SVG Version: 6.00 Build 0)  -->
	<!DOCTYPE svg PUBLIC "-//W3C//DTD SVG 1.1//EN" "http://www.w3.org/Graphics/SVG/1.1/DTD/svg11.dtd">
	<svg version="1.1" id="FINAL_LOGO_ON_WHITE" xmlns="http://www.w3.org/2000/svg" xmlns:xlink="http://www.w3.org/1999/xlink"
		 x="0px" y="0px" width="1797.5px" height="282.909px" viewBox="0 0 1797.5 282.909" enable-background="new 0 0 1797.5 282.909"
		 xml:space="preserve">
	<g>
		<path id="XMLID_197_" fill="#FFFFFF" d="M715.66,140.187c17.882-8.207,27.624-25.622,27.624-49.709
			c0-35.297-28.091-57.249-73.396-57.249h-58.25V251.55h71.194c40.969,0,68.525-25.155,68.525-62.587
			C751.29,166.876,737.745,148.594,715.66,140.187z M667.952,122.238h-19.016V64.589h26.289c14.546,0,30.76,11.009,30.76,26.756
			C705.985,111.829,692.106,122.238,667.952,122.238z M648.936,156.334h18.149c23.287,0,46.907,11.143,46.907,32.361
			c0,20.017-12.678,31.494-34.763,31.494h-30.293L648.936,156.334L648.936,156.334z"/>
		<path id="XMLID_194_" fill="#FFFFFF" d="M1038.47,27.89c-64.789,0-117.434,51.377-117.434,114.498s52.712,114.498,117.434,114.498
			c64.789,0,117.434-51.377,117.434-114.498S1103.258,27.89,1038.47,27.89z M1038.47,221.923c-44.171,0-80.135-35.697-80.135-79.535
			s35.964-79.535,80.135-79.535s80.135,35.697,80.135,79.535C1118.605,186.293,1082.641,221.923,1038.47,221.923z"/>
		<path id="XMLID_191_" fill="#FFFFFF" d="M1469.439,33.228h-61.986v218.32h61.986c62.053,0,110.628-47.908,110.628-109.16
			C1580.067,81.203,1531.492,33.228,1469.439,33.228z M1542.769,143.857c0,47.04-31.293,76.265-81.603,76.265h-16.347V66.924h28.224
			C1512.743,66.991,1542.769,100.086,1542.769,143.857z"/>
		<path id="XMLID_190_" fill="#FFFFFF" d="M1680.42,123.906c-20.084-7.807-41.903-15.213-41.903-33.495
			c0-17.015,16.281-27.824,34.029-27.824c13.211,0,29.092,6.339,42.303,24.154l1.668,2.202l24.021-25.021l-1.134-1.601
			c-16.948-23.62-41.369-35.097-66.257-35.097c-39.033,0-71.928,27.557-71.928,64.055c0,44.238,34.83,56.115,61.519,65.99
			c20.351,7.54,42.503,14.746,42.503,34.696c0,17.815-16.881,28.157-34.029,28.157c-18.482,0-36.565-13.011-44.772-26.089
			l-1.535-2.469l-26.556,26.222l1.068,1.601c16.547,24.488,43.17,38.033,70.661,38.033c38.767,0,72.529-29.692,72.529-67.591
			C1742.54,146.926,1706.109,133.848,1680.42,123.906z"/>
		<polygon id="XMLID_189_" fill="#FFFFFF" points="367.628,33.228 367.628,120.637 278.418,120.637 278.418,33.228 241.053,33.228
			241.053,251.549 278.418,251.549 278.418,156.334 367.628,156.334 367.628,251.549 404.927,251.549 404.927,33.228 	"/>
		<polygon id="XMLID_188_" fill="#FFFFFF" points="816.212,216.586 816.212,33.228 778.914,33.228 778.914,251.549 902.353,251.549
			920.368,216.586 	"/>
		<polygon id="XMLID_187_" fill="#FFFFFF" points="1330.053,33.228 1330.053,179.487 1187.13,0 1187.13,251.549 1223.228,251.549
			1223.228,105.424 1366.151,282.909 1366.151,33.228 	"/>
		<polygon id="XMLID_129_" fill="#FFFFFF" points="576.14,66.991 576.14,33.228 440.09,33.228 440.09,251.549 576.14,251.549
			576.14,217.787 477.389,217.787 477.389,156.334 551.119,156.334 551.119,120.637 477.389,120.637 477.389,66.991 	"/>
	</g>
	<polygon fill="#FFFFFF" points="54.893,33.228 213.896,33.228 213.896,66.991 153.311,66.991 153.311,251.549 116.012,251.549
		116.012,66.991 54.893,66.991 "/>
	</svg>
